<?xml version="1.0" encoding="UTF-8" standalone="no"?>
<!DOCTYPE svg PUBLIC "-//W3C//DTD SVG 1.1//EN"
 "http://www.w3.org/Graphics/SVG/1.1/DTD/svg11.dtd">
<!-- Generated by graphviz version 2.40.1 (20161225.0304)
 -->
<!-- Title: dependencies Pages: 1 -->
<svg width="782pt" height="284pt"
 viewBox="0.00 0.00 782.00 284.00" xmlns="http://www.w3.org/2000/svg" xmlns:xlink="http://www.w3.org/1999/xlink">
<g id="graph0" class="graph" transform="scale(1 1) rotate(0) translate(4 280)">
<title>dependencies</title>
<polygon fill="#ffffff" stroke="transparent" points="-4,4 -4,-280 778,-280 778,4 -4,4"/>
<text text-anchor="start" x="366.0091" y="-42.4" font-family="sans-serif" font-weight="bold" font-size="14.00" fill="#000000">Legend</text>
<polygon fill="#ffffb3" stroke="transparent" points="153,-10 153,-30 173,-30 173,-10 153,-10"/>
<text text-anchor="start" x="176.629" y="-15.4" font-family="sans-serif" font-size="14.00" fill="#000000"> &#160;Declarations</text>
<polygon fill="#8dd3c7" stroke="transparent" points="266,-10 266,-30 286,-30 286,-10 266,-10"/>
<text text-anchor="start" x="289.7251" y="-15.4" font-family="sans-serif" font-size="14.00" fill="#000000"> &#160;Module</text>
<polygon fill="#80b1d3" stroke="transparent" points="352,-10 352,-30 372,-30 372,-10 352,-10"/>
<text text-anchor="start" x="375.7812" y="-15.4" font-family="sans-serif" font-size="14.00" fill="#000000"> &#160;Bootstrap</text>
<polygon fill="#fdb462" stroke="transparent" points="449,-10 449,-30 469,-30 469,-10 449,-10"/>
<text text-anchor="start" x="472.6732" y="-15.4" font-family="sans-serif" font-size="14.00" fill="#000000"> &#160;Providers</text>
<polygon fill="#fb8072" stroke="transparent" points="545,-10 545,-30 565,-30 565,-10 545,-10"/>
<text text-anchor="start" x="568.7258" y="-15.4" font-family="sans-serif" font-size="14.00" fill="#000000"> &#160;Exports</text>
<g id="clust1" class="cluster">
<title>cluster_NxFormsModule</title>
<polygon fill="none" stroke="#000000" stroke-dasharray="1,5" points="8,-70 8,-268 766,-268 766,-70 8,-70"/>
</g>
<g id="clust2" class="cluster">
<title>cluster_NxFormsModule_declarations</title>
<polygon fill="none" stroke="#000000" points="162,-78 162,-130 758,-130 758,-78 162,-78"/>
</g>
<g id="clust8" class="cluster">
<title>cluster_NxFormsModule_exports</title>
<polygon fill="none" stroke="#000000" points="81,-208 81,-260 693,-260 693,-208 81,-208"/>
</g>
<g id="clust10" class="cluster">
<title>cluster_NxFormsModule_providers</title>
<polygon fill="none" stroke="#000000" points="16,-78 16,-130 154,-130 154,-78 16,-78"/>
</g>
<!-- NxInputComponent -->
<g id="node1" class="node">
<title>NxInputComponent</title>
<polygon fill="#ffffb3" stroke="#000000" points="749.9902,-122 622.0098,-122 622.0098,-86 749.9902,-86 749.9902,-122"/>
<text text-anchor="middle" x="686" y="-99.8" font-family="Times,serif" font-size="14.00" fill="#000000">NxInputComponent</text>
</g>
<!-- NxFormsModule -->
<g id="node5" class="node">
<title>NxFormsModule</title>
<polygon fill="#8dd3c7" stroke="#000000" points="447.4356,-187 444.4356,-191 423.4356,-191 420.4356,-187 334.5644,-187 334.5644,-151 447.4356,-151 447.4356,-187"/>
<text text-anchor="middle" x="391" y="-164.8" font-family="Times,serif" font-size="14.00" fill="#000000">NxFormsModule</text>
</g>
<!-- NxInputComponent&#45;&gt;NxFormsModule -->
<g id="edge1" class="edge">
<title>NxInputComponent&#45;&gt;NxFormsModule</title>
<path fill="none" stroke="#000000" d="M653.375,-122.1061C653.375,-141.3391 653.375,-169 653.375,-169 653.375,-169 457.286,-169 457.286,-169"/>
<polygon fill="#000000" stroke="#000000" points="457.2861,-165.5001 447.286,-169 457.286,-172.5001 457.2861,-165.5001"/>
</g>
<!-- NxDateComponent -->
<g id="node2" class="node">
<title>NxDateComponent</title>
<polygon fill="#ffffb3" stroke="#000000" points="604.3655,-122 479.6345,-122 479.6345,-86 604.3655,-86 604.3655,-122"/>
<text text-anchor="middle" x="542" y="-99.8" font-family="Times,serif" font-size="14.00" fill="#000000">NxDateComponent</text>
</g>
<!-- NxDateComponent&#45;&gt;NxFormsModule -->
<g id="edge2" class="edge">
<title>NxDateComponent&#45;&gt;NxFormsModule</title>
<path fill="none" stroke="#000000" d="M507.375,-122.027C507.375,-138.3976 507.375,-160 507.375,-160 507.375,-160 457.483,-160 457.483,-160"/>
<polygon fill="#000000" stroke="#000000" points="457.483,-156.5001 447.483,-160 457.483,-163.5001 457.483,-156.5001"/>
</g>
<!-- NxDatalistComponent -->
<g id="node3" class="node">
<title>NxDatalistComponent</title>
<polygon fill="#ffffb3" stroke="#000000" points="461.9818,-122 320.0182,-122 320.0182,-86 461.9818,-86 461.9818,-122"/>
<text text-anchor="middle" x="391" y="-99.8" font-family="Times,serif" font-size="14.00" fill="#000000">NxDatalistComponent</text>
</g>
<!-- NxDatalistComponent&#45;&gt;NxFormsModule -->
<g id="edge3" class="edge">
<title>NxDatalistComponent&#45;&gt;NxFormsModule</title>
<path fill="none" stroke="#000000" d="M391,-122.1061C391,-122.1061 391,-140.991 391,-140.991"/>
<polygon fill="#000000" stroke="#000000" points="387.5001,-140.9909 391,-150.991 394.5001,-140.991 387.5001,-140.9909"/>
</g>
<!-- NxSelectComponent -->
<g id="node4" class="node">
<title>NxSelectComponent</title>
<polygon fill="#ffffb3" stroke="#000000" points="302.1471,-122 169.8529,-122 169.8529,-86 302.1471,-86 302.1471,-122"/>
<text text-anchor="middle" x="236" y="-99.8" font-family="Times,serif" font-size="14.00" fill="#000000">NxSelectComponent</text>
</g>
<!-- NxSelectComponent&#45;&gt;NxFormsModule -->
<g id="edge4" class="edge">
<title>NxSelectComponent&#45;&gt;NxFormsModule</title>
<path fill="none" stroke="#000000" d="M272.7912,-122.027C272.7912,-138.3976 272.7912,-160 272.7912,-160 272.7912,-160 324.6652,-160 324.6652,-160"/>
<polygon fill="#000000" stroke="#000000" points="324.6653,-163.5001 334.6652,-160 324.6652,-156.5001 324.6653,-163.5001"/>
</g>
<!-- NxInputComponent  -->
<g id="node6" class="node">
<title>NxInputComponent </title>
<polygon fill="#fb8072" stroke="#000000" points="684.9911,-252 553.0089,-252 553.0089,-216 684.9911,-216 684.9911,-252"/>
<text text-anchor="middle" x="619" y="-229.8" font-family="Times,serif" font-size="14.00" fill="#000000">NxInputComponent </text>
</g>
<!-- NxFormsModule&#45;&gt;NxInputComponent  -->
<g id="edge5" class="edge">
<title>NxFormsModule&#45;&gt;NxInputComponent </title>
<path fill="none" stroke="#000000" stroke-dasharray="5,2" d="M447.3593,-178C502.6899,-178 578.8438,-178 578.8438,-178 578.8438,-178 578.8438,-205.973 578.8438,-205.973"/>
<polygon fill="#000000" stroke="#000000" points="575.3439,-205.973 578.8438,-215.973 582.3439,-205.973 575.3439,-205.973"/>
</g>
<!-- NxDateComponent  -->
<g id="node7" class="node">
<title>NxDateComponent </title>
<polygon fill="#fb8072" stroke="#000000" points="535.3659,-252 406.6341,-252 406.6341,-216 535.3659,-216 535.3659,-252"/>
<text text-anchor="middle" x="471" y="-229.8" font-family="Times,serif" font-size="14.00" fill="#000000">NxDateComponent </text>
</g>
<!-- NxFormsModule&#45;&gt;NxDateComponent  -->
<g id="edge6" class="edge">
<title>NxFormsModule&#45;&gt;NxDateComponent </title>
<path fill="none" stroke="#000000" stroke-dasharray="5,2" d="M427.0174,-187.1061C427.0174,-187.1061 427.0174,-205.991 427.0174,-205.991"/>
<polygon fill="#000000" stroke="#000000" points="423.5174,-205.9909 427.0174,-215.991 430.5174,-205.991 423.5174,-205.9909"/>
</g>
<!-- NxDatalistComponent  -->
<g id="node8" class="node">
<title>NxDatalistComponent </title>
<polygon fill="#fb8072" stroke="#000000" points="388.9826,-252 243.0174,-252 243.0174,-216 388.9826,-216 388.9826,-252"/>
<text text-anchor="middle" x="316" y="-229.8" font-family="Times,serif" font-size="14.00" fill="#000000">NxDatalistComponent </text>
</g>
<!-- NxFormsModule&#45;&gt;NxDatalistComponent  -->
<g id="edge7" class="edge">
<title>NxFormsModule&#45;&gt;NxDatalistComponent </title>
<path fill="none" stroke="#000000" stroke-dasharray="5,2" d="M361.7618,-187.1061C361.7618,-187.1061 361.7618,-205.991 361.7618,-205.991"/>
<polygon fill="#000000" stroke="#000000" points="358.2618,-205.9909 361.7618,-215.991 365.2618,-205.991 358.2618,-205.9909"/>
</g>
<!-- NxSelectComponent  -->
<g id="node9" class="node">
<title>NxSelectComponent </title>
<polygon fill="#fb8072" stroke="#000000" points="225.1467,-252 88.8533,-252 88.8533,-216 225.1467,-216 225.1467,-252"/>
<text text-anchor="middle" x="157" y="-229.8" font-family="Times,serif" font-size="14.00" fill="#000000">NxSelectComponent </text>
</g>
<!-- NxFormsModule&#45;&gt;NxSelectComponent  -->
<g id="edge8" class="edge">
<title>NxFormsModule&#45;&gt;NxSelectComponent </title>
<path fill="none" stroke="#000000" stroke-dasharray="5,2" d="M334.7355,-178C277.5672,-178 197.375,-178 197.375,-178 197.375,-178 197.375,-205.973 197.375,-205.973"/>
<polygon fill="#000000" stroke="#000000" points="193.8751,-205.973 197.375,-215.973 200.8751,-205.973 193.8751,-205.973"/>
</g>
<!-- AssetService -->
<g id="node10" class="node">
<title>AssetService</title>
<ellipse fill="#fdb462" stroke="#000000" cx="85" cy="-104" rx="61.3896" ry="18"/>
<text text-anchor="middle" x="85" y="-99.8" font-family="Times,serif" font-size="14.00" fill="#000000">AssetService</text>
</g>
<!-- AssetService&#45;&gt;NxFormsModule -->
<g id="edge9" class="edge">
<title>AssetService&#45;&gt;NxFormsModule</title>
<path fill="none" stroke="#000000" d="M117.6857,-119.4041C117.6857,-138.6255 117.6857,-169 117.6857,-169 117.6857,-169 324.7005,-169 324.7005,-169"/>
<polygon fill="#000000" stroke="#000000" points="324.7005,-172.5001 334.7005,-169 324.7005,-165.5001 324.7005,-172.5001"/>
</g>
</g>
</svg>
