<?xml version="1.0" encoding="UTF-8" standalone="no"?>
<!DOCTYPE svg PUBLIC "-//W3C//DTD SVG 1.1//EN"
 "http://www.w3.org/Graphics/SVG/1.1/DTD/svg11.dtd">
<!-- Generated by graphviz version 2.40.1 (20161225.0304)
 -->
<!-- Title: dependencies Pages: 1 -->
<svg width="1402pt" height="360pt"
 viewBox="0.00 0.00 1402.00 360.00" xmlns="http://www.w3.org/2000/svg" xmlns:xlink="http://www.w3.org/1999/xlink">
<g id="graph0" class="graph" transform="scale(1 1) rotate(0) translate(4 356)">
<title>dependencies</title>
<polygon fill="#ffffff" stroke="transparent" points="-4,4 -4,-356 1398,-356 1398,4 -4,4"/>
<text text-anchor="start" x="676.0091" y="-42.4" font-family="sans-serif" font-weight="bold" font-size="14.00" fill="#000000">Legend</text>
<polygon fill="#ffffb3" stroke="transparent" points="463,-10 463,-30 483,-30 483,-10 463,-10"/>
<text text-anchor="start" x="486.629" y="-15.4" font-family="sans-serif" font-size="14.00" fill="#000000"> &#160;Declarations</text>
<polygon fill="#8dd3c7" stroke="transparent" points="576,-10 576,-30 596,-30 596,-10 576,-10"/>
<text text-anchor="start" x="599.7251" y="-15.4" font-family="sans-serif" font-size="14.00" fill="#000000"> &#160;Module</text>
<polygon fill="#80b1d3" stroke="transparent" points="662,-10 662,-30 682,-30 682,-10 662,-10"/>
<text text-anchor="start" x="685.7812" y="-15.4" font-family="sans-serif" font-size="14.00" fill="#000000"> &#160;Bootstrap</text>
<polygon fill="#fdb462" stroke="transparent" points="759,-10 759,-30 779,-30 779,-10 759,-10"/>
<text text-anchor="start" x="782.6732" y="-15.4" font-family="sans-serif" font-size="14.00" fill="#000000"> &#160;Providers</text>
<polygon fill="#fb8072" stroke="transparent" points="855,-10 855,-30 875,-30 875,-10 855,-10"/>
<text text-anchor="start" x="878.7258" y="-15.4" font-family="sans-serif" font-size="14.00" fill="#000000"> &#160;Exports</text>
<g id="clust1" class="cluster">
<title>cluster_AppModule</title>
<polygon fill="none" stroke="#000000" stroke-dasharray="1,5" points="628,-146 628,-344 902,-344 902,-146 628,-146"/>
</g>
<g id="clust2" class="cluster">
<title>cluster_AppModule_declarations</title>
<polygon fill="none" stroke="#000000" points="772,-154 772,-206 894,-206 894,-154 772,-154"/>
</g>
<g id="clust4" class="cluster">
<title>cluster_AppModule_imports</title>
<polygon fill="none" stroke="#000000" points="636,-154 636,-206 764,-206 764,-154 636,-154"/>
</g>
<g id="clust6" class="cluster">
<title>cluster_AppModule_bootstrap</title>
<polygon fill="none" stroke="#000000" points="704,-284 704,-336 828,-336 828,-284 704,-284"/>
</g>
<g id="clust8" class="cluster">
<title>cluster_NxFormsModule</title>
<polygon fill="none" stroke="#000000" stroke-dasharray="1,5" points="8,-70 8,-138 1386,-138 1386,-70 8,-70"/>
</g>
<g id="clust9" class="cluster">
<title>cluster_NxFormsModule_declarations</title>
<polygon fill="none" stroke="#000000" points="782,-78 782,-130 1378,-130 1378,-78 782,-78"/>
</g>
<g id="clust15" class="cluster">
<title>cluster_NxFormsModule_exports</title>
<polygon fill="none" stroke="#000000" points="162,-78 162,-130 774,-130 774,-78 162,-78"/>
</g>
<g id="clust17" class="cluster">
<title>cluster_NxFormsModule_providers</title>
<polygon fill="none" stroke="#000000" points="16,-78 16,-130 154,-130 154,-78 16,-78"/>
</g>
<!-- AppComponent -->
<g id="node1" class="node">
<title>AppComponent</title>
<polygon fill="#ffffb3" stroke="#000000" points="885.9399,-198 780.0601,-198 780.0601,-162 885.9399,-162 885.9399,-198"/>
<text text-anchor="middle" x="833" y="-175.8" font-family="Times,serif" font-size="14.00" fill="#000000">AppComponent</text>
</g>
<!-- AppModule -->
<g id="node2" class="node">
<title>AppModule</title>
<polygon fill="#8dd3c7" stroke="#000000" points="807.6571,-263 804.6571,-267 783.6571,-267 780.6571,-263 724.3429,-263 724.3429,-227 807.6571,-227 807.6571,-263"/>
<text text-anchor="middle" x="766" y="-240.8" font-family="Times,serif" font-size="14.00" fill="#000000">AppModule</text>
</g>
<!-- AppComponent&#45;&gt;AppModule -->
<g id="edge1" class="edge">
<title>AppComponent&#45;&gt;AppModule</title>
<path fill="none" stroke="#000000" d="M794.0544,-198.1061C794.0544,-198.1061 794.0544,-216.991 794.0544,-216.991"/>
<polygon fill="#000000" stroke="#000000" points="790.5544,-216.9909 794.0544,-226.991 797.5544,-216.991 790.5544,-216.9909"/>
</g>
<!-- AppComponent  -->
<g id="node4" class="node">
<title>AppComponent </title>
<polygon fill="#80b1d3" stroke="#000000" points="820.439,-328 711.561,-328 711.561,-292 820.439,-292 820.439,-328"/>
<text text-anchor="middle" x="766" y="-305.8" font-family="Times,serif" font-size="14.00" fill="#000000">AppComponent </text>
</g>
<!-- AppModule&#45;&gt;AppComponent  -->
<g id="edge3" class="edge">
<title>AppModule&#45;&gt;AppComponent </title>
<path fill="none" stroke="#000000" stroke-dasharray="1,5" d="M766,-263.1061C766,-263.1061 766,-281.991 766,-281.991"/>
<polygon fill="#000000" stroke="#000000" points="762.5001,-281.9909 766,-291.991 769.5001,-281.991 762.5001,-281.9909"/>
</g>
<!-- NxFormsModule -->
<g id="node3" class="node">
<title>NxFormsModule</title>
<polygon fill="#8dd3c7" stroke="#000000" points="756.4356,-198 753.4356,-202 732.4356,-202 729.4356,-198 643.5644,-198 643.5644,-162 756.4356,-162 756.4356,-198"/>
<text text-anchor="middle" x="700" y="-175.8" font-family="Times,serif" font-size="14.00" fill="#000000">NxFormsModule</text>
</g>
<!-- NxFormsModule&#45;&gt;AppModule -->
<g id="edge2" class="edge">
<title>NxFormsModule&#45;&gt;AppModule</title>
<path fill="none" stroke="#000000" d="M740.1946,-198.1061C740.1946,-198.1061 740.1946,-216.991 740.1946,-216.991"/>
<polygon fill="#000000" stroke="#000000" points="736.6947,-216.9909 740.1946,-226.991 743.6947,-216.991 736.6947,-216.9909"/>
</g>
<!-- NxInputComponent  -->
<g id="node9" class="node">
<title>NxInputComponent </title>
<polygon fill="#fb8072" stroke="#000000" points="765.9911,-122 634.0089,-122 634.0089,-86 765.9911,-86 765.9911,-122"/>
<text text-anchor="middle" x="700" y="-99.8" font-family="Times,serif" font-size="14.00" fill="#000000">NxInputComponent </text>
</g>
<!-- NxFormsModule&#45;&gt;NxInputComponent  -->
<g id="edge8" class="edge">
<title>NxFormsModule&#45;&gt;NxInputComponent </title>
<path fill="none" stroke="#000000" stroke-dasharray="5,2" d="M666.2696,-161.9891C666.2696,-161.9891 666.2696,-132.145 666.2696,-132.145"/>
<polygon fill="#000000" stroke="#000000" points="669.7697,-132.145 666.2696,-122.145 662.7697,-132.1451 669.7697,-132.145"/>
</g>
<!-- NxDateComponent  -->
<g id="node10" class="node">
<title>NxDateComponent </title>
<polygon fill="#fb8072" stroke="#000000" points="616.3659,-122 487.6341,-122 487.6341,-86 616.3659,-86 616.3659,-122"/>
<text text-anchor="middle" x="552" y="-99.8" font-family="Times,serif" font-size="14.00" fill="#000000">NxDateComponent </text>
</g>
<!-- NxFormsModule&#45;&gt;NxDateComponent  -->
<g id="edge9" class="edge">
<title>NxFormsModule&#45;&gt;NxDateComponent </title>
<path fill="none" stroke="#000000" stroke-dasharray="5,2" d="M643.6253,-170C601.8006,-170 552,-170 552,-170 552,-170 552,-132.0348 552,-132.0348"/>
<polygon fill="#000000" stroke="#000000" points="555.5001,-132.0348 552,-122.0348 548.5001,-132.0348 555.5001,-132.0348"/>
</g>
<!-- NxDatalistComponent  -->
<g id="node11" class="node">
<title>NxDatalistComponent </title>
<polygon fill="#fb8072" stroke="#000000" points="469.9826,-122 324.0174,-122 324.0174,-86 469.9826,-86 469.9826,-122"/>
<text text-anchor="middle" x="397" y="-99.8" font-family="Times,serif" font-size="14.00" fill="#000000">NxDatalistComponent </text>
</g>
<!-- NxFormsModule&#45;&gt;NxDatalistComponent  -->
<g id="edge10" class="edge">
<title>NxFormsModule&#45;&gt;NxDatalistComponent </title>
<path fill="none" stroke="#000000" stroke-dasharray="5,2" d="M643.7181,-177C556.0928,-177 397,-177 397,-177 397,-177 397,-132.0449 397,-132.0449"/>
<polygon fill="#000000" stroke="#000000" points="400.5001,-132.0449 397,-122.0449 393.5001,-132.045 400.5001,-132.0449"/>
</g>
<!-- NxSelectComponent  -->
<g id="node12" class="node">
<title>NxSelectComponent </title>
<polygon fill="#fb8072" stroke="#000000" points="306.1467,-122 169.8533,-122 169.8533,-86 306.1467,-86 306.1467,-122"/>
<text text-anchor="middle" x="238" y="-99.8" font-family="Times,serif" font-size="14.00" fill="#000000">NxSelectComponent </text>
</g>
<!-- NxFormsModule&#45;&gt;NxSelectComponent  -->
<g id="edge11" class="edge">
<title>NxFormsModule&#45;&gt;NxSelectComponent </title>
<path fill="none" stroke="#000000" stroke-dasharray="5,2" d="M643.3497,-184C519.9824,-184 238,-184 238,-184 238,-184 238,-132.1532 238,-132.1532"/>
<polygon fill="#000000" stroke="#000000" points="241.5001,-132.1532 238,-122.1532 234.5001,-132.1533 241.5001,-132.1532"/>
</g>
<!-- NxInputComponent -->
<g id="node5" class="node">
<title>NxInputComponent</title>
<polygon fill="#ffffb3" stroke="#000000" points="1369.9902,-122 1242.0098,-122 1242.0098,-86 1369.9902,-86 1369.9902,-122"/>
<text text-anchor="middle" x="1306" y="-99.8" font-family="Times,serif" font-size="14.00" fill="#000000">NxInputComponent</text>
</g>
<!-- NxInputComponent&#45;&gt;NxFormsModule -->
<g id="edge4" class="edge">
<title>NxInputComponent&#45;&gt;NxFormsModule</title>
<path fill="none" stroke="#000000" d="M1306,-122.1467C1306,-135.7395 1306,-152 1306,-152 1306,-152 733.7304,-152 733.7304,-152 733.7304,-152 733.7304,-152.9793 733.7304,-152.9793"/>
<polygon fill="#000000" stroke="#000000" points="730.2306,-151.793 733.7304,-161.793 737.2306,-151.7931 730.2306,-151.793"/>
</g>
<!-- NxDateComponent -->
<g id="node6" class="node">
<title>NxDateComponent</title>
<polygon fill="#ffffb3" stroke="#000000" points="1224.3655,-122 1099.6345,-122 1099.6345,-86 1224.3655,-86 1224.3655,-122"/>
<text text-anchor="middle" x="1162" y="-99.8" font-family="Times,serif" font-size="14.00" fill="#000000">NxDateComponent</text>
</g>
<!-- NxDateComponent&#45;&gt;NxFormsModule -->
<g id="edge5" class="edge">
<title>NxDateComponent&#45;&gt;NxFormsModule</title>
<path fill="none" stroke="#000000" d="M1162,-122.1097C1162,-131.897 1162,-142 1162,-142 1162,-142 711.2435,-142 711.2435,-142 711.2435,-142 711.2435,-151.8903 711.2435,-151.8903"/>
<polygon fill="#000000" stroke="#000000" points="707.7436,-151.8903 711.2435,-161.8903 714.7436,-151.8904 707.7436,-151.8903"/>
</g>
<!-- NxDatalistComponent -->
<g id="node7" class="node">
<title>NxDatalistComponent</title>
<polygon fill="#ffffb3" stroke="#000000" points="1081.9818,-122 940.0182,-122 940.0182,-86 1081.9818,-86 1081.9818,-122"/>
<text text-anchor="middle" x="1011" y="-99.8" font-family="Times,serif" font-size="14.00" fill="#000000">NxDatalistComponent</text>
</g>
<!-- NxDatalistComponent&#45;&gt;NxFormsModule -->
<g id="edge6" class="edge">
<title>NxDatalistComponent&#45;&gt;NxFormsModule</title>
<path fill="none" stroke="#000000" d="M1011,-122.207C1011,-127.5549 1011,-132 1011,-132 1011,-132 688.7565,-132 688.7565,-132 688.7565,-132 688.7565,-151.8533 688.7565,-151.8533"/>
<polygon fill="#000000" stroke="#000000" points="685.2566,-151.8532 688.7565,-161.8533 692.2566,-151.8533 685.2566,-151.8532"/>
</g>
<!-- NxSelectComponent -->
<g id="node8" class="node">
<title>NxSelectComponent</title>
<polygon fill="#ffffb3" stroke="#000000" points="922.1471,-122 789.8529,-122 789.8529,-86 922.1471,-86 922.1471,-122"/>
<text text-anchor="middle" x="856" y="-99.8" font-family="Times,serif" font-size="14.00" fill="#000000">NxSelectComponent</text>
</g>
<!-- NxSelectComponent&#45;&gt;NxFormsModule -->
<g id="edge7" class="edge">
<title>NxSelectComponent&#45;&gt;NxFormsModule</title>
<path fill="none" stroke="#000000" d="M789.8065,-104C779.947,-104 773.0128,-104 773.0128,-104 773.0128,-104 773.0128,-180 773.0128,-180 773.0128,-180 766.4451,-180 766.4451,-180"/>
<polygon fill="#000000" stroke="#000000" points="766.4451,-176.5001 756.4451,-180 766.445,-183.5001 766.4451,-176.5001"/>
</g>
<!-- AssetService -->
<g id="node13" class="node">
<title>AssetService</title>
<ellipse fill="#fdb462" stroke="#000000" cx="85" cy="-104" rx="61.3896" ry="18"/>
<text text-anchor="middle" x="85" y="-99.8" font-family="Times,serif" font-size="14.00" fill="#000000">AssetService</text>
</g>
<!-- AssetService&#45;&gt;NxFormsModule -->
<g id="edge12" class="edge">
<title>AssetService&#45;&gt;NxFormsModule</title>
<path fill="none" stroke="#000000" d="M85,-122.0265C85,-147.5093 85,-191 85,-191 85,-191 633.5188,-191 633.5188,-191"/>
<polygon fill="#000000" stroke="#000000" points="633.5189,-194.5001 643.5188,-191 633.5188,-187.5001 633.5189,-194.5001"/>
</g>
</g>
</svg>
